name rise43.5482peak65.4966fall89.1036.mot
datacolumns 19
datarows 36
range 4.24164700000000 4.29998000000000
endheader
time	ground_force1_vx	ground_force1_vy	ground_force1_vz	ground_force1_px	ground_force1_py	ground_force1_pz	ground_force2_vx	ground_force2_vy	ground_force2_vz	ground_force2_px	ground_force2_py	ground_force2_pz	ground_torque1_x	ground_torque1_y	ground_torque1_z	ground_torque2_x	ground_torque2_y	ground_torque2_z	
4.24164700000000	54.54796800000000	807.70844399999999	66.94310400000001	0.26712400000000	0.00000000000000	0.15093400000000	0.00000000000000	0.00000000000000	0.00000000000000	0.00000000000000	0.00000000000000	0.00000000000000	0.00000000000000	18.62002700000000	0.00000000000000	0.00000000000000	0.00000000000000	0.00000000000000	
4.24331400000000	54.14459100000000	809.88689699999998	66.99744699999999	0.26662000000000	0.00000000000000	0.15090900000000	0.00000000000000	0.00000000000000	0.00000000000000	0.00000000000000	0.00000000000000	0.00000000000000	0.00000000000000	18.64239700000000	0.00000000000000	0.00000000000000	0.00000000000000	0.00000000000000	
4.24497600000000	53.73937700000000	811.87715800000001	67.04577900000000	0.26610800000000	0.00000000000000	0.15088600000000	0.00000000000000	0.00000000000000	0.00000000000000	0.00000000000000	0.00000000000000	0.00000000000000	0.00000000000000	18.66185400000000	0.00000000000000	0.00000000000000	0.00000000000000	0.00000000000000	
4.24665100000000	53.33183500000000	813.67933400000004	67.08799999999999	0.26558500000000	0.00000000000000	0.15086600000000	0.00000000000000	0.00000000000000	0.00000000000000	0.00000000000000	0.00000000000000	0.00000000000000	0.00000000000000	18.67842200000000	0.00000000000000	0.00000000000000	0.00000000000000	0.00000000000000	
4.24831800000000	52.92145800000000	815.29389900000001	67.12396500000000	0.26504900000000	0.00000000000000	0.15084900000000	0.00000000000000	0.00000000000000	0.00000000000000	0.00000000000000	0.00000000000000	0.00000000000000	0.00000000000000	18.69211100000000	0.00000000000000	0.00000000000000	0.00000000000000	0.00000000000000	
4.24997900000000	52.50772200000000	816.72168699999997	67.15349300000000	0.26449700000000	0.00000000000000	0.15083500000000	0.00000000000000	0.00000000000000	0.00000000000000	0.00000000000000	0.00000000000000	0.00000000000000	0.00000000000000	18.70292000000000	0.00000000000000	0.00000000000000	0.00000000000000	0.00000000000000	
4.25164700000000	52.09010200000000	817.96389899999997	67.17636800000000	0.26392700000000	0.00000000000000	0.15082400000000	0.00000000000000	0.00000000000000	0.00000000000000	0.00000000000000	0.00000000000000	0.00000000000000	0.00000000000000	18.71083600000000	0.00000000000000	0.00000000000000	0.00000000000000	0.00000000000000	
4.25331700000000	51.66806900000000	819.02209900000003	67.19234899999999	0.26333700000000	0.00000000000000	0.15081600000000	0.00000000000000	0.00000000000000	0.00000000000000	0.00000000000000	0.00000000000000	0.00000000000000	0.00000000000000	18.71583900000000	0.00000000000000	0.00000000000000	0.00000000000000	0.00000000000000	
4.25497700000000	51.24110500000000	819.89820799999995	67.20116700000000	0.26272400000000	0.00000000000000	0.15081100000000	0.00000000000000	0.00000000000000	0.00000000000000	0.00000000000000	0.00000000000000	0.00000000000000	0.00000000000000	18.71790100000000	0.00000000000000	0.00000000000000	0.00000000000000	0.00000000000000	
4.25664200000000	50.80870500000000	820.59450300000003	67.20253900000000	0.26208700000000	0.00000000000000	0.15080900000000	0.00000000000000	0.00000000000000	0.00000000000000	0.00000000000000	0.00000000000000	0.00000000000000	0.00000000000000	18.71698700000000	0.00000000000000	0.00000000000000	0.00000000000000	0.00000000000000	
4.25831300000000	50.37038300000000	821.11360900000000	67.19616499999999	0.26142300000000	0.00000000000000	0.15081100000000	0.00000000000000	0.00000000000000	0.00000000000000	0.00000000000000	0.00000000000000	0.00000000000000	0.00000000000000	18.71305800000000	0.00000000000000	0.00000000000000	0.00000000000000	0.00000000000000	
4.25997600000000	49.92567900000000	821.45849299999998	67.18173700000000	0.26073200000000	0.00000000000000	0.15081600000000	0.00000000000000	0.00000000000000	0.00000000000000	0.00000000000000	0.00000000000000	0.00000000000000	0.00000000000000	18.70607300000000	0.00000000000000	0.00000000000000	0.00000000000000	0.00000000000000	
4.26164600000000	49.47416400000000	821.63245099999995	67.15894400000001	0.26001000000000	0.00000000000000	0.15082400000000	0.00000000000000	0.00000000000000	0.00000000000000	0.00000000000000	0.00000000000000	0.00000000000000	0.00000000000000	18.69598900000000	0.00000000000000	0.00000000000000	0.00000000000000	0.00000000000000	
4.26331200000000	49.01544800000000	821.63910399999997	67.12747299999999	0.25925800000000	0.00000000000000	0.15083600000000	0.00000000000000	0.00000000000000	0.00000000000000	0.00000000000000	0.00000000000000	0.00000000000000	0.00000000000000	18.68276500000000	0.00000000000000	0.00000000000000	0.00000000000000	0.00000000000000	
4.26497800000000	48.54917900000000	821.48238000000003	67.08702000000000	0.25847300000000	0.00000000000000	0.15085100000000	0.00000000000000	0.00000000000000	0.00000000000000	0.00000000000000	0.00000000000000	0.00000000000000	0.00000000000000	18.66635900000000	0.00000000000000	0.00000000000000	0.00000000000000	0.00000000000000	
4.26664700000000	48.07505300000000	821.16650600000003	67.03728900000000	0.25765600000000	0.00000000000000	0.15086900000000	0.00000000000000	0.00000000000000	0.00000000000000	0.00000000000000	0.00000000000000	0.00000000000000	0.00000000000000	18.64673800000000	0.00000000000000	0.00000000000000	0.00000000000000	0.00000000000000	
4.26831400000000	47.59281500000000	820.69599100000005	66.97800100000001	0.25680300000000	0.00000000000000	0.15089100000000	0.00000000000000	0.00000000000000	0.00000000000000	0.00000000000000	0.00000000000000	0.00000000000000	0.00000000000000	18.62386900000000	0.00000000000000	0.00000000000000	0.00000000000000	0.00000000000000	
4.26997900000000	47.10226200000000	820.07561399999997	66.90889300000001	0.25591600000000	0.00000000000000	0.15091600000000	0.00000000000000	0.00000000000000	0.00000000000000	0.00000000000000	0.00000000000000	0.00000000000000	0.00000000000000	18.59772900000000	0.00000000000000	0.00000000000000	0.00000000000000	0.00000000000000	
4.27164900000000	46.60325000000000	819.31040599999994	66.82972599999999	0.25499400000000	0.00000000000000	0.15094400000000	0.00000000000000	0.00000000000000	0.00000000000000	0.00000000000000	0.00000000000000	0.00000000000000	0.00000000000000	18.56830300000000	0.00000000000000	0.00000000000000	0.00000000000000	0.00000000000000	
4.27331100000000	46.09569200000000	818.40563499999996	66.74028900000000	0.25403600000000	0.00000000000000	0.15097600000000	0.00000000000000	0.00000000000000	0.00000000000000	0.00000000000000	0.00000000000000	0.00000000000000	0.00000000000000	18.53558500000000	0.00000000000000	0.00000000000000	0.00000000000000	0.00000000000000	
4.27498300000000	45.57956200000000	817.36678900000004	66.64040000000000	0.25304200000000	0.00000000000000	0.15101100000000	0.00000000000000	0.00000000000000	0.00000000000000	0.00000000000000	0.00000000000000	0.00000000000000	0.00000000000000	18.49957900000000	0.00000000000000	0.00000000000000	0.00000000000000	0.00000000000000	
4.27664300000000	45.05489700000000	816.19955500000003	66.52991000000000	0.25201300000000	0.00000000000000	0.15104900000000	0.00000000000000	0.00000000000000	0.00000000000000	0.00000000000000	0.00000000000000	0.00000000000000	0.00000000000000	18.46030200000000	0.00000000000000	0.00000000000000	0.00000000000000	0.00000000000000	
4.27831000000000	44.52179800000000	814.90980500000001	66.40870700000001	0.25094800000000	0.00000000000000	0.15109100000000	0.00000000000000	0.00000000000000	0.00000000000000	0.00000000000000	0.00000000000000	0.00000000000000	0.00000000000000	18.41778200000000	0.00000000000000	0.00000000000000	0.00000000000000	0.00000000000000	
4.27997600000000	43.98042800000000	813.50357299999996	66.27671800000000	0.24984900000000	0.00000000000000	0.15113500000000	0.00000000000000	0.00000000000000	0.00000000000000	0.00000000000000	0.00000000000000	0.00000000000000	0.00000000000000	18.37206000000000	0.00000000000000	0.00000000000000	0.00000000000000	0.00000000000000	
4.28164400000000	43.43101800000000	811.98703799999998	66.13391000000000	0.24871500000000	0.00000000000000	0.15118300000000	0.00000000000000	0.00000000000000	0.00000000000000	0.00000000000000	0.00000000000000	0.00000000000000	0.00000000000000	18.32319300000000	0.00000000000000	0.00000000000000	0.00000000000000	0.00000000000000	
4.28331300000000	42.87386100000000	810.36650599999996	65.98029300000000	0.24754900000000	0.00000000000000	0.15123300000000	0.00000000000000	0.00000000000000	0.00000000000000	0.00000000000000	0.00000000000000	0.00000000000000	0.00000000000000	18.27124900000000	0.00000000000000	0.00000000000000	0.00000000000000	0.00000000000000	
4.28498200000000	42.30931100000000	808.64838399999996	65.81592100000000	0.24635000000000	0.00000000000000	0.15128700000000	0.00000000000000	0.00000000000000	0.00000000000000	0.00000000000000	0.00000000000000	0.00000000000000	0.00000000000000	18.21631300000000	0.00000000000000	0.00000000000000	0.00000000000000	0.00000000000000	
4.28664900000000	41.73778700000000	806.83916699999997	65.64089400000000	0.24512100000000	0.00000000000000	0.15134300000000	0.00000000000000	0.00000000000000	0.00000000000000	0.00000000000000	0.00000000000000	0.00000000000000	0.00000000000000	18.15848000000000	0.00000000000000	0.00000000000000	0.00000000000000	0.00000000000000	
4.28831000000000	41.15976700000000	804.94541700000002	65.45535700000001	0.24386400000000	0.00000000000000	0.15140200000000	0.00000000000000	0.00000000000000	0.00000000000000	0.00000000000000	0.00000000000000	0.00000000000000	0.00000000000000	18.09786300000000	0.00000000000000	0.00000000000000	0.00000000000000	0.00000000000000	
4.28998300000000	40.57578500000000	802.97373800000003	65.25950300000000	0.24257900000000	0.00000000000000	0.15146400000000	0.00000000000000	0.00000000000000	0.00000000000000	0.00000000000000	0.00000000000000	0.00000000000000	0.00000000000000	18.03458500000000	0.00000000000000	0.00000000000000	0.00000000000000	0.00000000000000	
4.29164700000000	39.98643000000000	800.93076299999996	65.05356700000000	0.24126800000000	0.00000000000000	0.15152700000000	0.00000000000000	0.00000000000000	0.00000000000000	0.00000000000000	0.00000000000000	0.00000000000000	0.00000000000000	17.96878500000000	0.00000000000000	0.00000000000000	0.00000000000000	0.00000000000000	
4.29331100000000	39.39234500000000	798.82313199999999	64.83783400000000	0.23993500000000	0.00000000000000	0.15159400000000	0.00000000000000	0.00000000000000	0.00000000000000	0.00000000000000	0.00000000000000	0.00000000000000	0.00000000000000	17.90061000000000	0.00000000000000	0.00000000000000	0.00000000000000	0.00000000000000	
4.29497600000000	38.79421900000000	796.65747299999998	64.61263099999999	0.23858100000000	0.00000000000000	0.15166200000000	0.00000000000000	0.00000000000000	0.00000000000000	0.00000000000000	0.00000000000000	0.00000000000000	0.00000000000000	17.83022200000000	0.00000000000000	0.00000000000000	0.00000000000000	0.00000000000000	
4.29665000000000	38.19278700000000	794.44038399999999	64.37833000000001	0.23720800000000	0.00000000000000	0.15173300000000	0.00000000000000	0.00000000000000	0.00000000000000	0.00000000000000	0.00000000000000	0.00000000000000	0.00000000000000	17.75779200000000	0.00000000000000	0.00000000000000	0.00000000000000	0.00000000000000	
4.29831000000000	37.58882100000000	792.17841399999998	64.13534400000000	0.23581900000000	0.00000000000000	0.15180500000000	0.00000000000000	0.00000000000000	0.00000000000000	0.00000000000000	0.00000000000000	0.00000000000000	0.00000000000000	17.68349800000000	0.00000000000000	0.00000000000000	0.00000000000000	0.00000000000000	
4.29998000000000	36.98313300000000	789.87804800000004	63.88412700000000	0.23441800000000	0.00000000000000	0.15187900000000	0.00000000000000	0.00000000000000	0.00000000000000	0.00000000000000	0.00000000000000	0.00000000000000	0.00000000000000	17.60752800000000	0.00000000000000	0.00000000000000	0.00000000000000	0.00000000000000	
